# Blender v3.0.1 OBJ File: ''
# www.blender.org
mtllib cube sphere.mtl
o Cube
v 1.000000 2.000000 -1.000000
v 1.000000 0.000000 -1.000000
v 1.000000 2.000000 1.000000
v 1.000000 0.000000 1.000000
v -1.000000 2.000000 -1.000000
v -1.000000 0.000000 -1.000000
v -1.000000 2.000000 1.000000
v -1.000000 0.000000 1.000000
v -2.000000 1.923880 -0.382683
v -2.000000 1.707107 -0.707107
v -2.000000 1.382683 -0.923880
v -2.000000 1.000000 -1.000000
v -2.000000 0.617317 -0.923880
v -2.000000 0.292893 -0.707107
v -2.000000 0.076120 -0.382683
v -1.729402 1.923880 -0.270598
v -1.500000 1.707107 -0.500000
v -1.346719 1.382683 -0.653281
v -1.292893 1.000000 -0.707107
v -1.346718 0.617317 -0.653282
v -1.500000 0.292893 -0.500000
v -1.729402 0.076120 -0.270598
v -1.617316 1.923880 0.000000
v -1.292893 1.707107 0.000000
v -1.076120 1.382683 0.000000
v -1.000000 1.000000 0.000000
v -1.076120 0.617317 0.000000
v -1.292893 0.292893 0.000000
v -1.617316 0.076120 0.000000
v -1.729402 1.923880 0.270598
v -1.500000 1.707107 0.500000
v -1.346719 1.382683 0.653282
v -1.292893 1.000000 0.707107
v -1.346718 0.617317 0.653282
v -1.500000 0.292893 0.500000
v -1.729402 0.076120 0.270598
v -2.000000 1.923880 0.382684
v -2.000000 1.707107 0.707107
v -2.000000 1.382683 0.923880
v -2.000000 1.000000 1.000000
v -2.000000 0.617317 0.923880
v -2.000000 0.292893 0.707107
v -2.000000 0.076120 0.382684
v -2.000000 2.000000 0.000000
v -2.270598 1.923880 0.270598
v -2.500000 1.707107 0.500000
v -2.653281 1.382683 0.653282
v -2.707107 1.000000 0.707107
v -2.653281 0.617317 0.653282
v -2.500000 0.292893 0.500000
v -2.270598 0.076120 0.270598
v -2.382684 1.923880 0.000000
v -2.707107 1.707107 0.000000
v -2.923879 1.382683 0.000000
v -3.000000 1.000000 0.000000
v -2.923880 0.617317 0.000000
v -2.707107 0.292893 0.000000
v -2.382684 0.076120 0.000000
v -2.000000 0.000000 0.000000
v -2.270598 1.923880 -0.270598
v -2.500000 1.707107 -0.500000
v -2.653281 1.382683 -0.653281
v -2.707107 1.000000 -0.707107
v -2.653281 0.617317 -0.653281
v -2.500000 0.292893 -0.500000
v -2.270598 0.076120 -0.270598
v 2.006554 1.923880 -0.404070
v 2.006554 1.707107 -0.728493
v 2.006554 1.382683 -0.945266
v 2.006554 1.000000 -1.021386
v 2.006554 0.617317 -0.945266
v 2.006554 0.292893 -0.728493
v 2.006554 0.076120 -0.404070
v 2.277152 1.923880 -0.291984
v 2.506554 1.707107 -0.521386
v 2.659836 1.382683 -0.674668
v 2.713661 1.000000 -0.728493
v 2.659836 0.617317 -0.674668
v 2.506554 0.292893 -0.521386
v 2.277152 0.076120 -0.291984
v 2.389238 1.923880 -0.021386
v 2.713661 1.707107 -0.021386
v 2.930434 1.382683 -0.021386
v 3.006554 1.000000 -0.021386
v 2.930434 0.617317 -0.021386
v 2.713661 0.292893 -0.021386
v 2.389238 0.076120 -0.021386
v 2.277152 1.923880 0.249212
v 2.506554 1.707107 0.478614
v 2.659836 1.382683 0.631895
v 2.713661 1.000000 0.685721
v 2.659836 0.617317 0.631895
v 2.506554 0.292893 0.478614
v 2.277152 0.076120 0.249212
v 2.006554 1.923880 0.361297
v 2.006554 1.707107 0.685720
v 2.006554 1.382683 0.902493
v 2.006554 1.000000 0.978614
v 2.006554 0.617317 0.902493
v 2.006554 0.292893 0.685720
v 2.006554 0.076120 0.361297
v 2.006554 2.000000 -0.021386
v 1.735956 1.923880 0.249212
v 1.506554 1.707107 0.478614
v 1.353273 1.382683 0.631895
v 1.299447 1.000000 0.685720
v 1.353273 0.617317 0.631895
v 1.506554 0.292893 0.478614
v 1.735956 0.076120 0.249212
v 1.623871 1.923880 -0.021386
v 1.299448 1.707107 -0.021386
v 1.082675 1.382683 -0.021386
v 1.006554 1.000000 -0.021386
v 1.082675 0.617317 -0.021386
v 1.299448 0.292893 -0.021386
v 1.623871 0.076120 -0.021386
v 2.006554 0.000000 -0.021386
v 1.735956 1.923880 -0.291984
v 1.506554 1.707107 -0.521386
v 1.353273 1.382683 -0.674668
v 1.299448 1.000000 -0.728493
v 1.353273 0.617317 -0.674668
v 1.506554 0.292893 -0.521386
v 1.735956 0.076120 -0.291984
v 1.000000 2.000000 2.000000
v 1.000000 0.000000 2.000000
v 1.000000 2.000000 4.000000
v 1.000000 0.000000 4.000000
v -1.000000 2.000000 2.000000
v -1.000000 0.000000 2.000000
v -1.000000 2.000000 4.000000
v -1.000000 0.000000 4.000000
v -1.000000 0.000000 3.000000
v 0.000000 0.000000 2.000000
v 1.000000 1.000000 2.000000
v -1.000000 1.000000 4.000000
v 1.000000 1.000000 4.000000
v -1.000000 1.000000 2.000000
v 0.000000 2.000000 4.000000
v 1.000000 2.000000 3.000000
v 0.000000 0.000000 4.000000
v -1.000000 2.000000 3.000000
v 0.000000 2.000000 2.000000
v 1.000000 0.000000 3.000000
v 0.000000 1.000000 2.000000
v 1.000000 1.000000 3.000000
v 0.000000 0.000000 3.000000
v -1.000000 1.000000 3.000000
v 0.000000 1.000000 4.000000
v 0.000000 2.000000 3.000000
v -1.000000 1.000000 5.000000
v -1.000000 2.000000 5.000000
v 0.000000 2.000000 5.000000
v 0.000000 1.000000 5.000000
v 0.000000 3.000000 2.000000
v 1.000000 3.000000 2.000000
v 1.000000 3.000000 3.000000
v 0.000000 3.000000 3.000000
v 2.000000 1.000000 4.000000
v 2.000000 0.000000 4.000000
v 2.000000 0.000000 3.000000
v 2.000000 1.000000 3.000000
v -2.000000 1.000000 2.000000
v -2.000000 0.000000 2.000000
v -2.000000 0.000000 3.000000
v -2.000000 1.000000 3.000000
vt 0.625000 0.500000
vt 0.875000 0.500000
vt 0.875000 0.750000
vt 0.625000 0.750000
vt 0.375000 0.750000
vt 0.625000 1.000000
vt 0.375000 1.000000
vt 0.375000 0.000000
vt 0.625000 0.000000
vt 0.625000 0.250000
vt 0.375000 0.250000
vt 0.125000 0.500000
vt 0.375000 0.500000
vt 0.125000 0.750000
vt 0.750000 0.875000
vt 0.687500 1.000000
vt 0.625000 0.875000
vt 0.687500 0.000000
vt 0.750000 0.125000
vt 0.625000 0.125000
vt 0.750000 0.250000
vt 0.750000 0.375000
vt 0.625000 0.375000
vt 0.625000 0.250000
vt 0.750000 0.500000
vt 0.750000 0.625000
vt 0.625000 0.625000
vt 0.625000 0.500000
vt 0.750000 0.750000
vt 0.625000 0.750000
vt 0.500000 0.625000
vt 0.500000 0.500000
vt 0.500000 0.875000
vt 0.500000 0.750000
vt 0.500000 0.250000
vt 0.500000 0.125000
vt 0.500000 0.375000
vt 0.562500 1.000000
vt 0.562500 0.000000
vt 0.375000 0.250000
vt 0.375000 0.125000
vt 0.375000 0.500000
vt 0.375000 0.375000
vt 0.375000 0.750000
vt 0.375000 0.625000
vt 0.437500 1.000000
vt 0.375000 0.875000
vt 0.437500 0.000000
vt 0.250000 0.750000
vt 0.250000 0.625000
vt 0.312500 1.000000
vt 0.250000 0.875000
vt 0.312500 0.000000
vt 0.250000 0.125000
vt 0.250000 0.375000
vt 0.250000 0.250000
vt 0.250000 0.500000
vt 0.187500 0.000000
vt 0.125000 0.125000
vt 0.125000 0.375000
vt 0.125000 0.250000
vt 0.125000 0.625000
vt 0.125000 0.500000
vt 0.125000 0.875000
vt 0.125000 0.750000
vt 0.187500 1.000000
vt 0.000000 0.875000
vt 0.000000 0.750000
vt 0.000000 0.250000
vt 0.000000 0.125000
vt 0.000000 0.500000
vt 0.000000 0.375000
vt 0.000000 0.625000
vt 0.062500 1.000000
vt 0.062500 0.000000
vt 1.000000 0.125000
vt 1.000000 0.250000
vt 0.875000 0.250000
vt 0.875000 0.125000
vt 1.000000 0.375000
vt 1.000000 0.500000
vt 0.875000 0.500000
vt 0.875000 0.375000
vt 1.000000 0.625000
vt 1.000000 0.750000
vt 0.875000 0.750000
vt 0.875000 0.625000
vt 1.000000 0.875000
vt 0.937500 1.000000
vt 0.875000 0.875000
vt 0.937500 0.000000
vt 0.812500 1.000000
vt 0.812500 0.000000
vt 0.750000 0.625000
vt 0.875000 0.625000
vt 0.875000 0.750000
vt 0.750000 0.750000
vt 0.500000 0.875000
vt 0.625000 0.875000
vt 0.625000 0.875000
vt 0.500000 0.875000
vt 0.500000 0.125000
vt 0.625000 0.125000
vt 0.625000 0.250000
vt 0.500000 0.250000
vt 0.250000 0.625000
vt 0.375000 0.625000
vt 0.375000 0.750000
vt 0.250000 0.750000
vt 0.500000 0.625000
vt 0.625000 0.625000
vt 0.625000 0.750000
vt 0.500000 0.750000
vt 0.500000 0.375000
vt 0.625000 0.375000
vt 0.625000 0.500000
vt 0.500000 0.500000
vt 0.375000 0.375000
vt 0.375000 0.500000
vt 0.375000 0.250000
vt 0.375000 0.625000
vt 0.375000 0.750000
vt 0.125000 0.625000
vt 0.125000 0.750000
vt 0.125000 0.500000
vt 0.250000 0.500000
vt 0.125000 0.625000
vt 0.125000 0.500000
vt 0.375000 0.000000
vt 0.500000 0.000000
vt 0.375000 0.125000
vt 0.625000 0.000000
vt 0.375000 0.875000
vt 0.500000 1.000000
vt 0.375000 1.000000
vt 0.750000 0.500000
vt 0.750000 0.625000
vt 0.750000 0.500000
vt 0.875000 0.500000
vt 0.625000 1.000000
vt 0.500000 1.000000
vt 0.875000 0.750000
vt 0.750000 0.750000
vt 0.500000 0.000000
vt 0.625000 0.000000
vt 0.625000 0.500000
vt 0.625000 0.625000
vt 0.625000 0.375000
vt 0.500000 0.625000
vt 0.500000 0.750000
vt 0.375000 0.125000
vt 0.500000 0.125000
vt 0.500000 0.250000
vt 0.375000 0.250000
vt 0.750000 0.875000
vt 0.687500 1.000000
vt 0.625000 0.875000
vt 0.687500 0.000000
vt 0.750000 0.125000
vt 0.625000 0.125000
vt 0.750000 0.250000
vt 0.750000 0.375000
vt 0.625000 0.375000
vt 0.625000 0.250000
vt 0.750000 0.500000
vt 0.750000 0.625000
vt 0.625000 0.625000
vt 0.625000 0.500000
vt 0.750000 0.750000
vt 0.625000 0.750000
vt 0.500000 0.625000
vt 0.500000 0.500000
vt 0.500000 0.875000
vt 0.500000 0.750000
vt 0.500000 0.250000
vt 0.500000 0.125000
vt 0.500000 0.375000
vt 0.562500 1.000000
vt 0.562500 0.000000
vt 0.375000 0.250000
vt 0.375000 0.125000
vt 0.375000 0.500000
vt 0.375000 0.375000
vt 0.375000 0.750000
vt 0.375000 0.625000
vt 0.437500 1.000000
vt 0.375000 0.875000
vt 0.437500 0.000000
vt 0.250000 0.750000
vt 0.250000 0.625000
vt 0.312500 1.000000
vt 0.250000 0.875000
vt 0.312500 0.000000
vt 0.250000 0.125000
vt 0.250000 0.375000
vt 0.250000 0.250000
vt 0.250000 0.500000
vt 0.187500 0.000000
vt 0.125000 0.125000
vt 0.125000 0.375000
vt 0.125000 0.250000
vt 0.125000 0.625000
vt 0.125000 0.500000
vt 0.125000 0.875000
vt 0.125000 0.750000
vt 0.187500 1.000000
vt 0.000000 0.875000
vt 0.000000 0.750000
vt 0.000000 0.250000
vt 0.000000 0.125000
vt 0.000000 0.500000
vt 0.000000 0.375000
vt 0.000000 0.625000
vt 0.062500 1.000000
vt 0.062500 0.000000
vt 1.000000 0.125000
vt 1.000000 0.250000
vt 0.875000 0.250000
vt 0.875000 0.125000
vt 1.000000 0.375000
vt 1.000000 0.500000
vt 0.875000 0.500000
vt 0.875000 0.375000
vt 1.000000 0.625000
vt 1.000000 0.750000
vt 0.875000 0.750000
vt 0.875000 0.625000
vt 1.000000 0.875000
vt 0.937500 1.000000
vt 0.875000 0.875000
vt 0.937500 0.000000
vt 0.812500 1.000000
vt 0.812500 0.000000
vn 0.0000 1.0000 0.0000
vn 0.0000 0.0000 1.0000
vn -1.0000 0.0000 0.0000
vn 0.0000 -1.0000 0.0000
vn 1.0000 0.0000 0.0000
vn 0.0000 0.0000 -1.0000
vn 0.0805 0.9776 -0.1945
vn 0.0805 -0.9776 -0.1945
vn 0.3256 -0.5253 -0.7862
vn 0.3764 0.1807 -0.9087
vn 0.2243 0.8103 -0.5414
vn 0.2243 -0.8103 -0.5414
vn 0.3764 -0.1807 -0.9087
vn 0.3256 0.5253 -0.7862
vn 0.9087 0.1807 -0.3764
vn 0.5414 0.8103 -0.2243
vn 0.5414 -0.8103 -0.2243
vn 0.9087 -0.1807 -0.3764
vn 0.7862 0.5253 -0.3256
vn 0.1945 0.9776 -0.0805
vn 0.1945 -0.9776 -0.0805
vn 0.7862 -0.5253 -0.3256
vn 0.5414 -0.8103 0.2243
vn 0.9087 -0.1807 0.3764
vn 0.7862 0.5253 0.3256
vn 0.1945 0.9776 0.0805
vn 0.1945 -0.9776 0.0805
vn 0.7862 -0.5253 0.3256
vn 0.9087 0.1807 0.3764
vn 0.5414 0.8103 0.2243
vn 0.3256 0.5253 0.7862
vn 0.0805 0.9776 0.1945
vn 0.0805 -0.9776 0.1945
vn 0.3256 -0.5253 0.7862
vn 0.3764 0.1807 0.9087
vn 0.2243 0.8103 0.5414
vn 0.2243 -0.8103 0.5414
vn 0.3764 -0.1807 0.9087
vn -0.0805 -0.9776 0.1945
vn -0.3256 -0.5253 0.7862
vn -0.3764 0.1807 0.9087
vn -0.2243 0.8103 0.5414
vn -0.2243 -0.8103 0.5414
vn -0.3764 -0.1807 0.9087
vn -0.3256 0.5253 0.7862
vn -0.0805 0.9776 0.1945
vn -0.5414 0.8103 0.2243
vn -0.5414 -0.8103 0.2243
vn -0.9087 -0.1807 0.3764
vn -0.7862 0.5253 0.3256
vn -0.1945 0.9776 0.0805
vn -0.1945 -0.9776 0.0805
vn -0.7862 -0.5253 0.3256
vn -0.9087 0.1807 0.3764
vn -0.5414 -0.8103 -0.2243
vn -0.9087 -0.1807 -0.3764
vn -0.7862 0.5253 -0.3256
vn -0.1945 0.9776 -0.0805
vn -0.1945 -0.9776 -0.0805
vn -0.7862 -0.5253 -0.3256
vn -0.9087 0.1807 -0.3764
vn -0.5414 0.8103 -0.2243
vn -0.0805 0.9776 -0.1945
vn -0.0805 -0.9776 -0.1945
vn -0.3256 -0.5253 -0.7862
vn -0.3764 0.1807 -0.9087
vn -0.2243 0.8103 -0.5414
vn -0.2243 -0.8103 -0.5414
vn -0.3764 -0.1807 -0.9087
vn -0.3256 0.5253 -0.7862
vn 0.0000 0.9063 -0.4226
vn 0.2988 0.9063 -0.2988
vn 0.0000 -0.9063 -0.4226
vn 0.2988 -0.9063 -0.2988
vn 0.0000 -0.6838 -0.7296
vn 0.0000 -0.3668 -0.9303
vn 0.6578 -0.3668 -0.6578
vn 0.5159 -0.6838 -0.5159
vn 0.0000 0.3668 -0.9303
vn 0.6578 0.3668 -0.6578
vn 0.7071 0.0000 -0.7071
vn 0.0000 0.6838 -0.7296
vn 0.5159 0.6838 -0.5159
vn 0.9303 0.3668 0.0000
vn 0.4226 0.9063 0.0000
vn 0.7296 0.6838 0.0000
vn 0.7296 -0.6838 0.0000
vn 0.4226 -0.9063 0.0000
vn 0.9303 -0.3668 0.0000
vn 0.5159 -0.6838 0.5159
vn 0.2988 -0.9063 0.2988
vn 0.7071 0.0000 0.7071
vn 0.6578 -0.3668 0.6578
vn 0.5159 0.6838 0.5159
vn 0.6578 0.3668 0.6578
vn 0.2988 0.9063 0.2988
vn 0.0000 0.6838 0.7296
vn 0.0000 0.3668 0.9303
vn 0.0000 0.9063 0.4226
vn 0.0000 -0.9063 0.4226
vn 0.0000 -0.3668 0.9303
vn 0.0000 -0.6838 0.7296
vn -0.2988 -0.9063 0.2988
vn -0.6578 -0.3668 0.6578
vn -0.5159 -0.6838 0.5159
vn -0.6578 0.3668 0.6578
vn -0.7071 0.0000 0.7071
vn -0.2988 0.9063 0.2988
vn -0.5159 0.6838 0.5159
vn -0.4226 0.9063 0.0000
vn -0.7296 0.6838 0.0000
vn -0.7296 -0.6838 0.0000
vn -0.4226 -0.9063 0.0000
vn -0.9303 -0.3668 0.0000
vn -0.9303 0.3668 0.0000
vn -0.5159 -0.6838 -0.5159
vn -0.2988 -0.9063 -0.2988
vn -0.7071 0.0000 -0.7071
vn -0.6578 -0.3668 -0.6578
vn -0.5159 0.6838 -0.5159
vn -0.6578 0.3668 -0.6578
vn -0.2988 0.9063 -0.2988
usemtl Material
s off
f 1/1/1 5/2/1 7/3/1 3/4/1
f 4/5/2 3/4/2 7/6/2 8/7/2
f 8/8/3 7/9/3 5/10/3 6/11/3
f 6/12/4 2/13/4 4/5/4 8/14/4
f 2/13/5 1/1/5 3/4/5 4/5/5
f 6/11/6 5/10/6 1/1/6 2/13/6
f 9/15/7 44/16/7 16/17/7
f 59/18/8 15/19/8 22/20/8
f 14/21/9 13/22/9 20/23/9 21/24/9
f 12/25/10 11/26/10 18/27/10 19/28/10
f 10/29/11 9/15/11 16/17/11 17/30/11
f 15/19/12 14/21/12 21/24/12 22/20/12
f 13/22/13 12/25/13 19/28/13 20/23/13
f 11/26/14 10/29/14 17/30/14 18/27/14
f 19/28/15 18/27/15 25/31/15 26/32/15
f 17/30/16 16/17/16 23/33/16 24/34/16
f 22/20/17 21/24/17 28/35/17 29/36/17
f 20/23/18 19/28/18 26/32/18 27/37/18
f 18/27/19 17/30/19 24/34/19 25/31/19
f 16/17/20 44/38/20 23/33/20
f 59/39/21 22/20/21 29/36/21
f 21/24/22 20/23/22 27/37/22 28/35/22
f 29/36/23 28/35/23 35/40/23 36/41/23
f 27/37/24 26/32/24 33/42/24 34/43/24
f 25/31/25 24/34/25 31/44/25 32/45/25
f 23/33/26 44/46/26 30/47/26
f 59/48/27 29/36/27 36/41/27
f 28/35/28 27/37/28 34/43/28 35/40/28
f 26/32/29 25/31/29 32/45/29 33/42/29
f 24/34/30 23/33/30 30/47/30 31/44/30
f 32/45/31 31/44/31 38/49/31 39/50/31
f 30/47/32 44/51/32 37/52/32
f 59/53/33 36/41/33 43/54/33
f 35/40/34 34/43/34 41/55/34 42/56/34
f 33/42/35 32/45/35 39/50/35 40/57/35
f 31/44/36 30/47/36 37/52/36 38/49/36
f 36/41/37 35/40/37 42/56/37 43/54/37
f 34/43/38 33/42/38 40/57/38 41/55/38
f 59/58/39 43/54/39 51/59/39
f 42/56/40 41/55/40 49/60/40 50/61/40
f 40/57/41 39/50/41 47/62/41 48/63/41
f 38/49/42 37/52/42 45/64/42 46/65/42
f 43/54/43 42/56/43 50/61/43 51/59/43
f 41/55/44 40/57/44 48/63/44 49/60/44
f 39/50/45 38/49/45 46/65/45 47/62/45
f 37/52/46 44/66/46 45/64/46
f 46/65/47 45/64/47 52/67/47 53/68/47
f 51/59/48 50/61/48 57/69/48 58/70/48
f 49/60/49 48/63/49 55/71/49 56/72/49
f 47/62/50 46/65/50 53/68/50 54/73/50
f 45/64/51 44/74/51 52/67/51
f 59/75/52 51/59/52 58/70/52
f 50/61/53 49/60/53 56/72/53 57/69/53
f 48/63/54 47/62/54 54/73/54 55/71/54
f 58/76/55 57/77/55 65/78/55 66/79/55
f 56/80/56 55/81/56 63/82/56 64/83/56
f 54/84/57 53/85/57 61/86/57 62/87/57
f 52/88/58 44/89/58 60/90/58
f 59/91/59 58/76/59 66/79/59
f 57/77/60 56/80/60 64/83/60 65/78/60
f 55/81/61 54/84/61 62/87/61 63/82/61
f 53/85/62 52/88/62 60/90/62 61/86/62
f 60/90/63 44/92/63 9/15/63
f 59/93/64 66/79/64 15/19/64
f 65/78/65 64/83/65 13/22/65 14/21/65
f 63/82/66 62/87/66 11/26/66 12/25/66
f 61/86/67 60/90/67 9/15/67 10/29/67
f 66/79/68 65/78/68 14/21/68 15/19/68
f 64/83/69 63/82/69 12/25/69 13/22/69
f 62/87/70 61/86/70 10/29/70 11/26/70
f 150/94/1 142/95/1 131/96/1 139/97/1
f 149/98/5 139/99/5 153/100/5 154/101/5
f 148/102/3 142/103/3 129/104/3 138/105/3
f 147/106/4 144/107/4 128/108/4 141/109/4
f 146/110/5 140/111/5 127/112/5 137/113/5
f 145/114/6 143/115/6 125/116/6 135/117/6
f 134/118/6 145/114/6 135/117/6 126/119/6
f 130/120/6 138/105/6 145/114/6 134/118/6
f 138/105/6 129/104/6 143/115/6 145/114/6
f 128/108/4 144/107/4 161/121/4 160/122/4
f 126/119/5 135/117/5 146/110/5 144/107/5
f 135/117/5 125/116/5 140/111/5 146/110/5
f 133/123/4 147/106/4 141/109/4 132/124/4
f 130/125/4 134/126/4 147/106/4 133/123/4
f 134/126/4 126/119/4 144/107/4 147/106/4
f 130/125/4 133/123/4 165/127/4 164/128/4
f 132/129/3 136/130/3 148/102/3 133/131/3
f 136/130/3 131/132/3 142/103/3 148/102/3
f 141/133/2 149/98/2 136/134/2 132/135/2
f 128/108/2 137/113/2 149/98/2 141/133/2
f 137/113/2 127/112/2 139/99/2 149/98/2
f 140/111/1 150/94/1 139/97/1 127/112/1
f 143/136/3 150/94/3 158/137/3 155/138/3
f 143/136/1 129/139/1 142/95/1 150/94/1
f 154/101/2 153/100/2 152/140/2 151/141/2
f 139/97/1 131/96/1 152/142/1 153/143/1
f 136/134/4 149/98/4 154/101/4 151/141/4
f 131/132/3 136/130/3 151/144/3 152/145/3
f 156/146/1 155/138/1 158/137/1 157/147/1
f 125/116/6 143/115/6 155/148/6 156/146/6
f 140/111/5 125/116/5 156/146/5 157/147/5
f 150/94/2 140/111/2 157/147/2 158/137/2
f 161/121/5 162/149/5 159/150/5 160/122/5
f 144/107/6 146/110/6 162/149/6 161/121/6
f 146/110/1 137/113/1 159/150/1 162/149/1
f 137/113/2 128/108/2 160/122/2 159/150/2
f 165/151/3 166/152/3 163/153/3 164/154/3
f 138/105/6 130/120/6 164/154/6 163/153/6
f 133/131/2 148/102/2 166/152/2 165/151/2
f 148/102/1 138/105/1 163/153/1 166/152/1
s 1
f 67/155/71 102/156/1 74/157/72
f 117/158/4 73/159/73 80/160/74
f 72/161/75 71/162/76 78/163/77 79/164/78
f 70/165/6 69/166/79 76/167/80 77/168/81
f 68/169/82 67/155/71 74/157/72 75/170/83
f 73/159/73 72/161/75 79/164/78 80/160/74
f 71/162/76 70/165/6 77/168/81 78/163/77
f 69/166/79 68/169/82 75/170/83 76/167/80
f 77/168/81 76/167/80 83/171/84 84/172/5
f 75/170/83 74/157/72 81/173/85 82/174/86
f 80/160/74 79/164/78 86/175/87 87/176/88
f 78/163/77 77/168/81 84/172/5 85/177/89
f 76/167/80 75/170/83 82/174/86 83/171/84
f 74/157/72 102/178/1 81/173/85
f 117/179/4 80/160/74 87/176/88
f 79/164/78 78/163/77 85/177/89 86/175/87
f 87/176/88 86/175/87 93/180/90 94/181/91
f 85/177/89 84/172/5 91/182/92 92/183/93
f 83/171/84 82/174/86 89/184/94 90/185/95
f 81/173/85 102/186/1 88/187/96
f 117/188/4 87/176/88 94/181/91
f 86/175/87 85/177/89 92/183/93 93/180/90
f 84/172/5 83/171/84 90/185/95 91/182/92
f 82/174/86 81/173/85 88/187/96 89/184/94
f 90/185/95 89/184/94 96/189/97 97/190/98
f 88/187/96 102/191/1 95/192/99
f 117/193/4 94/181/91 101/194/100
f 93/180/90 92/183/93 99/195/101 100/196/102
f 91/182/92 90/185/95 97/190/98 98/197/2
f 89/184/94 88/187/96 95/192/99 96/189/97
f 94/181/91 93/180/90 100/196/102 101/194/100
f 92/183/93 91/182/92 98/197/2 99/195/101
f 117/198/4 101/194/100 109/199/103
f 100/196/102 99/195/101 107/200/104 108/201/105
f 98/197/2 97/190/98 105/202/106 106/203/107
f 96/189/97 95/192/99 103/204/108 104/205/109
f 101/194/100 100/196/102 108/201/105 109/199/103
f 99/195/101 98/197/2 106/203/107 107/200/104
f 97/190/98 96/189/97 104/205/109 105/202/106
f 95/192/99 102/206/1 103/204/108
f 104/205/109 103/204/108 110/207/110 111/208/111
f 109/199/103 108/201/105 115/209/112 116/210/113
f 107/200/104 106/203/107 113/211/3 114/212/114
f 105/202/106 104/205/109 111/208/111 112/213/115
f 103/204/108 102/214/1 110/207/110
f 117/215/4 109/199/103 116/210/113
f 108/201/105 107/200/104 114/212/114 115/209/112
f 106/203/107 105/202/106 112/213/115 113/211/3
f 116/216/113 115/217/112 123/218/116 124/219/117
f 114/220/114 113/221/3 121/222/118 122/223/119
f 112/224/115 111/225/111 119/226/120 120/227/121
f 110/228/110 102/229/1 118/230/122
f 117/231/4 116/216/113 124/219/117
f 115/217/112 114/220/114 122/223/119 123/218/116
f 113/221/3 112/224/115 120/227/121 121/222/118
f 111/225/111 110/228/110 118/230/122 119/226/120
f 118/230/122 102/232/1 67/155/71
f 117/233/4 124/219/117 73/159/73
f 123/218/116 122/223/119 71/162/76 72/161/75
f 121/222/118 120/227/121 69/166/79 70/165/6
f 119/226/120 118/230/122 67/155/71 68/169/82
f 124/219/117 123/218/116 72/161/75 73/159/73
f 122/223/119 121/222/118 70/165/6 71/162/76
f 120/227/121 119/226/120 68/169/82 69/166/79
